<?xml version="1.0" encoding="UTF-8" standalone="no"?>
<svg width="178px" height="140px" viewBox="0 0 178 140" version="1.1" xmlns="http://www.w3.org/2000/svg" xmlns:xlink="http://www.w3.org/1999/xlink" xmlns:sketch="http://www.bohemiancoding.com/sketch/ns">
    <!-- Generator: Sketch 3.4.2 (15857) - http://www.bohemiancoding.com/sketch -->
    <title>Pictogram</title>
    <desc>Created with Sketch.</desc>
    <defs></defs>
    <g id="Contact" stroke="none" stroke-width="1" fill="none" fill-rule="evenodd" sketch:type="MSPage">
        <g id="Success" sketch:type="MSArtboardGroup" transform="translate(-629.000000, -549.000000)">
            <g id="Success-Message" sketch:type="MSLayerGroup" transform="translate(518.000000, 549.000000)">
                <g id="Pictogram" transform="translate(111.000000, 0.000000)" sketch:type="MSShapeGroup">
                    <g id="Envelope">
                        <rect id="Rectangle-46" fill="#D8D8D8" x="0" y="0" width="144" height="113" rx="6"></rect>
                        <path d="M0.0719665156,52.0639702 C0.519673797,49.1951322 3.00247054,47 6.0041678,47 L137.995832,47 C140.994709,47 143.480082,49.1933858 143.928041,52.0639636 L76.4903117,112.008612 C74.0008389,114.221477 69.989619,114.212995 67.5096883,112.008612 L0.0719665156,52.0639702 Z" id="Rectangle-46-Copy-2" fill="#CCCCCC" transform="translate(72.000004, 80.332541) scale(1, -1) translate(-72.000004, -80.332541) "></path>
                        <path d="M0.0719665156,5.06397024 C0.519673797,2.19513219 3.00247054,0 6.0041678,0 L137.995832,0 C140.994709,0 143.480082,2.19338578 143.928041,5.06396363 L76.4903117,65.0086118 C74.0008389,67.2214766 69.989619,67.2129946 67.5096883,65.0086118 L0.0719665156,5.06397024 Z" id="Rectangle-46-Copy" fill="#E6E6E6"></path>
                    </g>
                    <g id="Check" transform="translate(117.000000, 79.000000)" stroke="#FFFFFF" stroke-width="6">
                        <circle id="Oval-13" fill="#65BF68" cx="27.5" cy="27.5" r="27.5"></circle>
                        <path d="M41.5,20.5 L23.9714519,38.0285473 L14.9191753,28.9762707" id="Line" stroke-linecap="round" stroke-linejoin="round"></path>
                    </g>
                </g>
            </g>
        </g>
    </g>
</svg>