<?xml version="1.0" encoding="UTF-8" standalone="no"?>
<svg width="228px" height="228px" viewBox="0 0 228 228" version="1.1" xmlns="http://www.w3.org/2000/svg" xmlns:xlink="http://www.w3.org/1999/xlink" xmlns:sketch="http://www.bohemiancoding.com/sketch/ns">
    <!-- Generator: Sketch 3.4.4 (17249) - http://www.bohemiancoding.com/sketch -->
    <title>Safari Pinned Tab Icon</title>
    <desc>Created with Sketch.</desc>
    <defs></defs>
    <g id="Page-1" stroke="none" stroke-width="1" fill="none" fill-rule="evenodd" sketch:type="MSPage">
        <g id="Safari-Pinned-Tab-Icon" sketch:type="MSArtboardGroup" fill="#000000">
            <path d="M106.077611,218 C104.684311,215.4761 95.9456848,199.726631 93.779586,197.794042 C91.4237881,195.692204 88.1256711,193.356829 86.9477721,191.021454 C85.7698731,188.686078 85.0631338,182.84764 84.5919742,180.278727 C84.1208146,177.709814 78.9380592,175.841514 77.5245805,174.907364 C76.1111017,173.973213 55.6156599,168.835388 50.9040641,165.565862 C46.1924683,162.296337 43.3655108,159.026811 42.8943512,155.757285 C42.4231916,152.48776 44.30783,150.61946 44.7789895,149.451772 C45.2501491,148.284084 48.5482662,145.248096 48.5482662,143.613334 C48.5482662,141.978571 48.3126864,141.745033 45.7213087,138.475508 C43.129931,135.205982 46.4280481,134.271832 46.4280481,134.271832 C46.4280481,134.271832 43.8366704,131.702919 43.8366704,130.301694 C43.8366704,128.900469 44.30783,127.032168 44.30783,125.630943 C44.30783,124.229718 44.7789895,122.594955 43.8366704,121.19373 C42.8943512,119.792505 40.3029735,118.157742 37.9471756,117.690667 C35.5913777,117.223592 33,113.720529 33,111.618691 C33,109.516853 34.8846383,105.780252 36.7692767,103.678415 C38.653915,101.576577 55.3800801,83.8277238 56.7935589,82.4264986 C58.2070376,81.0252734 58.4426174,76.1209851 56.7935589,74.9532974 C55.1445003,73.7856097 54.9089205,71.2166968 55.8512397,69.581934 C56.7935589,67.9471713 57.0291387,67.2465586 58.2070376,66.0788709 C59.3849366,64.9111833 63.8609526,56.7373694 67.6302293,51.5995436 C71.3995059,46.4617178 79.6447986,38.5214415 79.6447986,38.5214415 C79.6447986,38.5214415 76.8178411,34.3177658 71.1639261,33.3836156 C65.5100111,32.4494655 63.6253728,33.3836156 61.0339951,35.2519159 C58.4426174,37.1202163 55.1445003,42.0245045 55.1445003,42.0245045 C55.1445003,42.0245045 56.5579791,34.3177658 58.6781972,31.7488529 C60.7984153,29.17994 64.567692,26.8445646 64.567692,26.8445646 C64.567692,26.8445646 63.1542132,25.4433394 62.2118941,23.5750391 C61.2695749,21.7067388 62.6830536,17.7366006 62.6830536,17.7366006 C62.6830536,17.7366006 63.1542132,20.3055135 65.0388516,22.4073514 C66.9234899,24.5091892 69.5148676,23.3415015 69.5148676,22.8744264 C69.5148676,21.3641957 68.1013888,21.2396637 67.1590697,19.8384384 C66.2167505,18.4372132 67.6302293,14 67.6302293,14 C67.6302293,14 67.3946495,16.3353754 69.043708,18.9042883 C70.6927665,21.4732012 75.6399421,21.4732012 76.5822613,21.4732012 C76.8766036,21.4732012 78.5232617,21.564081 79.8803784,20.5390511 C81.237495,19.5140212 81.7650167,17.5030631 81.7650167,17.5030631 C81.7650167,17.5030631 85.7270081,20.921998 88.1256711,20.3055135 C89.6310599,19.9186109 89.7747296,15.6347628 89.7747296,15.6347628 C89.7747296,15.6347628 91.786326,17.5436155 94.2507456,18.4372132 C96.2786349,19.1725252 99.2859169,18.6930116 101.318139,18.6707508 C103.474008,18.6471355 109.283032,15.6347628 114.500003,15.6347628 C117.808725,15.6347628 124.904048,18.6336399 128.645395,18.2036757 C131.088825,17.9228711 132.179092,15.6347628 132.179092,15.6347628 C132.179092,15.6347628 135.725819,18.3088075 140.659964,20.071976 C145.594109,21.8351444 149.140837,21.9402763 151.732215,22.6408889 C154.323592,23.3415015 160.213087,22.6408889 163.982364,24.5091892 C167.75164,26.3774895 169.636279,29.8805526 171.520917,32.4494655 C173.405555,35.0183784 179.53063,36.6531412 182.593167,39.6891292 C185.655704,42.7251172 188.247082,49.2641682 188.247082,49.2641682 C188.247082,49.2641682 192.723098,57.2044445 194.372157,63.9770331 C196.021215,70.7496217 196.256795,84.5283364 195.785635,92.9356878 C195.314476,101.343039 189.896141,115.822367 187.775923,119.091892 C185.655704,122.361418 179.53063,140.810883 178.588311,142.912721 C177.645992,145.014559 176.703672,153.188373 174.819034,155.757285 C173.984326,156.895059 172.08891,158.535949 171.520917,159.960961 C170.923453,161.459912 170.171728,173.531374 169.941575,177.44428 C166.459838,176.752705 162.858398,176.389907 159.171548,176.389907 C133.382272,176.389907 111.772045,194.141302 106.077611,218 Z" id="Silhouette" sketch:type="MSShapeGroup"></path>
        </g>
    </g>
</svg>