<?xml version="1.0" encoding="UTF-8" standalone="no"?>
<svg width="80px" height="80px" viewBox="0 0 80 80" version="1.1" xmlns="http://www.w3.org/2000/svg" xmlns:xlink="http://www.w3.org/1999/xlink" xmlns:sketch="http://www.bohemiancoding.com/sketch/ns">
    <!-- Generator: Sketch 3.4 (15575) - http://www.bohemiancoding.com/sketch -->
    <title>Logo</title>
    <desc>Created with Sketch.</desc>
    <defs>
        <circle id="path-1" cx="40" cy="40" r="40"></circle>
        <path d="M38.2170957,70.5306069 C37.8316361,69.8312068 35.4140742,65.4668587 34.8148178,64.9313174 C34.1630806,64.3488754 33.2506487,63.7017177 32.9247801,63.0545599 C32.5989115,62.4074021 32.4033904,60.7895076 32.273043,60.0776341 C32.1426956,59.3657605 30.7088739,58.8480343 30.3178316,58.5891712 C29.9267893,58.3303081 24.2566764,56.9065609 22.9532021,56.0005401 C21.6497279,55.0945192 20.8676433,54.1884983 20.7372959,53.2824774 C20.6069485,52.3764565 21.1283382,51.8587302 21.2586856,51.5351514 C21.389033,51.2115725 22.301465,50.3702673 22.301465,49.9172569 C22.301465,49.4642465 22.2362913,49.3995307 21.5193805,48.4935098 C20.8024696,47.5874889 21.7149016,47.3286258 21.7149016,47.3286258 C21.7149016,47.3286258 20.9979908,46.6167522 20.9979908,46.2284575 C20.9979908,45.8401629 21.1283382,45.3224366 21.1283382,44.934142 C21.1283382,44.5458473 21.2586856,44.0928369 20.9979908,43.7045422 C20.7372959,43.3162475 20.0203851,42.8632371 19.368648,42.7338055 C18.7169108,42.604374 18,41.6336373 18,41.0511953 C18,40.4687533 18.5213897,39.4333008 19.0427794,38.8508588 C19.5641691,38.2684168 24.1915027,33.3500177 24.5825449,32.961723 C24.9735872,32.5734283 25.0387609,31.214397 24.5825449,30.8908181 C24.126329,30.5672392 24.0611552,29.8553657 24.3218501,29.4023552 C24.5825449,28.9493448 24.6477186,28.7551974 24.9735872,28.4316185 C25.2994558,28.1080396 26.5377563,25.8429874 27.5805357,24.4192403 C28.6233151,22.9954932 30.904395,20.7951567 30.904395,20.7951567 C30.904395,20.7951567 30.1223105,19.6302727 28.5581414,19.3714096 C26.9939723,19.1125465 26.4725826,19.3714096 25.7556718,19.8891358 C25.0387609,20.406862 24.126329,21.7658934 24.126329,21.7658934 C24.126329,21.7658934 24.5173712,19.6302727 25.1039346,18.9183991 C25.690498,18.2065256 26.7332774,17.5593678 26.7332774,17.5593678 C26.7332774,17.5593678 26.3422352,17.1710731 26.0815403,16.6533469 C25.8208455,16.1356207 26.2118877,15.0354525 26.2118877,15.0354525 C26.2118877,15.0354525 26.3422352,15.747326 26.8636249,16.329768 C27.3850146,16.91221 28.1019254,16.5886311 28.1019254,16.4591996 C28.1019254,16.0406983 27.7108831,16.0061891 27.4501883,15.6178945 C27.1894934,15.2295998 27.5805357,14 27.5805357,14 C27.5805357,14 27.515362,14.6471578 27.971578,15.3590313 C28.427794,16.0709049 29.7964419,16.0709049 30.0571368,16.0709049 C30.1385673,16.0709049 30.5941192,16.0960887 30.9695687,15.8120418 C31.3450183,15.5279949 31.4909584,14.9707367 31.4909584,14.9707367 C31.4909584,14.9707367 32.5870528,15.9181605 33.2506487,15.747326 C33.6671181,15.6401111 33.7068647,14.4530104 33.7068647,14.4530104 C33.7068647,14.4530104 34.2633776,14.9819742 34.9451652,15.2295998 C35.5061856,15.4333627 36.3381573,15.3004843 36.9003766,15.2943156 C37.4968027,15.2877715 39.1038832,14.4530104 40.5471707,14.4530104 C41.4625364,14.4530104 43.4254746,15.2840317 44.4605272,15.164884 C45.1365079,15.08707 45.4381329,14.4530104 45.4381329,14.4530104 C45.4381329,14.4530104 46.4193435,15.1940172 47.7843865,15.6826102 C49.1494295,16.1712033 50.1306401,16.2003365 50.847551,16.3944838 C51.5644618,16.5886311 53.1938046,16.3944838 54.236584,16.91221 C55.2793634,17.4299362 55.8007531,18.4006729 56.3221428,19.1125465 C56.8435325,19.82442 58.538049,20.2774305 59.3853073,21.1187356 C60.2325655,21.9600407 60.9494764,23.7720825 60.9494764,23.7720825 C60.9494764,23.7720825 62.1877769,25.972419 62.6439929,27.8491765 C63.1002089,29.7259341 63.1653826,33.544165 63.0350352,35.873933 C62.9046877,38.203701 61.4056924,42.2160793 60.8191289,43.1221002 C60.2325655,44.0281211 58.538049,49.1406676 58.2773542,49.7231096 C58.0166593,50.3055516 57.7559645,52.5706038 57.2345748,53.2824774 C57.0036509,53.5977667 56.4792794,54.0524752 56.3221428,54.4473614 C56.1568529,54.8627369 55.9488864,58.2078695 55.8852141,59.2921782 C54.9219832,59.1005353 53.9256363,59 52.9056604,59 C45.7709955,59 39.7924747,63.9191036 38.2170957,70.5306069 Z" id="path-3"></path>
    </defs>
    <g id="Home-Page" stroke="none" stroke-width="1" fill="none" fill-rule="evenodd" sketch:type="MSPage">
        <g id="Desktop" sketch:type="MSArtboardGroup" transform="translate(-680.000000, -30.000000)">
            <g id="Header" sketch:type="MSLayerGroup">
                <g id="Logo" transform="translate(680.000000, 30.000000)">
                    <mask id="mask-2" sketch:name="Mask" fill="white">
                        <use xlink:href="#path-1"></use>
                    </mask>
                    <use id="Mask" fill="#FFFFFF" sketch:type="MSShapeGroup" xlink:href="#path-1"></use>
                    <g id="Silhouette">
                        <use fill="#505050" fill-rule="evenodd" sketch:type="MSShapeGroup" mask="url(#mask-2)" xlink:href="#path-3"></use>
                        <use fill="none" xlink:href="#path-3"></use>
                        <use fill="none" xlink:href="#path-3"></use>
                        <use fill="none" xlink:href="#path-3"></use>
                    </g>
                </g>
            </g>
        </g>
    </g>
</svg>